<?xml version="1.0" encoding="UTF-8"?>
<svg id="Layer_2" data-name="Layer 2" xmlns="http://www.w3.org/2000/svg" viewBox="0 0 396.61 82.72">
  <defs>
    <style>
      .cls-1 {
        fill: #fff;
      }

      .cls-2 {
        fill: #444;
      }

      .cls-3 {
        fill: #e9eef0;
      }
    </style>
  </defs>
  <g id="Layer_1-2" data-name="Layer 1">
    <path class="cls-2" d="M227.46,17.59c.67.71,1.14,1.76.94,2.75-.06.29-.71.31-.91.76-.71,1.56-1.09,3.28-1.93,4.8l-5.48,8.97c6.01-.62,11.97-2.17,18.01-1.19,2.88,1.07-2.12,2.65-3.33,3-3.71,1.08-8.81,1.44-12.1,2.07-1.13.21-4.08.35-4.79.85-.74.52-1.67,2.8-2.17,3.7-2.2,3.98-5.33,9.13-7.23,13.37-.73,1.64-4.19,11.39-3.05,12.28,1.85-1.05,3.68-2.23,5.33-3.58,4.63-3.79,9.88-11.13,14.23-15.67,1.95-2.04,4.93-5.48,8.17-3.93,1.11.53,1.09,2.48,1.19,2.58.13.13,2.42-1.36,2.96,1.13.36,1.69-1.37,3.93-2.35,5.23-1.25,1.66-2.78,3.29-3.74,5.44-1.09,2.4-2.16,5.87-1.22,8.41.64-.94,2.66-.7,2.74-.82.1-.17-.08-.77.14-1.03.35-.42,1.34-.68,1.68-1.32l.79,1.98.25-2.92,1.14-.25c-.63-2.1,1.53-2.71,2.64-4.09,3.62-4.51,6.98-9.88,9.67-14.65.97-1.72,1.84-3.48,2.75-5.22.09-.58-.01-.73-.6-.61-.98.2-3.38,1.22-4.65,1.63-.35.11-.3.7-.48.7-1.55.04-3.93-1.37-3.21-3.1,1.27-3.02,8.5-2.83,11.31-3.38,1.44-1.26,1.6-3.15,2.43-4.7,1.41-2.65,2.97-5.18,4.35-7.86.75-1.44,1.42-3.61,2.25-4.94,1.97-3.15,4.02.26,3.82,2.7l-7.3,13.82,15.61-2.34c2.83,1.25,8.22-1.3,9.35,2.34-1.45-1.07-1.82.48-2.56.62-.31.06-.9-.25-1.47-.14-4.74.92-8.62,1.72-13.3,2.59-3.43.63-6.94.79-10.3,1.78-3.37,7.28-8.2,15.7-8.59,23.87-.04.94-.27,2.04.76,2.49,1.62-.45,2.02-1.66,2.96-2.51,4.14-3.77,7.9-8.07,11.67-12.1,1.35-1.45,1.83-3.65,4.43-3.49,3.96.24-1.17,7.66-1.02,9.48.92-.27,1.16-1.29,1.72-1.86,1.04-1.04,1.33-1.62,2.23-2.59,1.24-1.33,4.59-4.54,6.21-2.54,1.89,2.35.03,5.51.34,8.19,3.58-2.93,5.99-7.19,9.48-10.33,4.18-1.52,3.95,2.13,3.19,4.98-.2.75-1.13,2.35-1.29,2.76-.51,1.29-.93,3.5-1.19,5.25-.92,6.19,2.1,3.05,4.67,1.16,3.88-2.84,8.27-6.74,11.09-11.04,3.22-2.68,7.05-9.23,11.65-5.08,1.51-2.91,4.96-2,4.59,1.31l-3.45,4.77c-.25,4.04-4.39,7.98-2.08,12.16,2.06-1.8,4.53-3.27,6.54-5.14,2.52-2.33,9.26-11.04,11.98-11.43,4.99-.71,1.16,7.88-.3,9.83.92.73,8.05-7.63,9.22-8.45,3.75-2.63,6.63-.52,4.78,3.7-.1.23-.78.25-.92.69-.24.77-.75,5.68-.56,6.49.62,2.72,3.21,2.3,5.41,1.82,5.45-1.19,10.77-4.69,15.63-7.32.45.08,1.57.1,1.25.81-.6,3.07-3.28,4.03-5.55,5.47-1.92,1.21-9.28,5.23-11.64,5.48-4.33.46-8.72-1.05-9.44-5.87-.3-1.97,1.25-4.49-.63-5.59,0,.47-.28.87-.58,1.2-2.48,2.82-5.95,5.39-7.73,8.11-1.15,1.76-1.72,5.47-4.65,4.86-5.24-1.09,3.04-10.9,2.25-13.78-.82.59-.12,1.2-1.58.39.05.51-.6,2.13-.87,2.31-.09.07-.54-.32-.65-.25-.27.18-1.41,2.16-1.27,2.7l-1.19-.4s.31.56.16.8c-.46.72-7.07,6.44-8.36,7.13-.97.51-2.14.25-3.12.74-.24-.95-.81-.37-1.37-.89-1.99-1.83-1.37-4.62-1.77-6.99-1.87,2.13-8.76,8.72-11.7,6.93-1.02-.62-1.15-3.12-1.38-4.16-2.39,2.3-5.69,5.76-9.26,5.73-2.66-.02-2.31-2.18-4.02-3.55l.76-.36c-1.21-2.97,1.27-5.91,1.03-8.95-1.01.4-1.88,1.08-2.57,1.89-1.1,1.28-1.71,3.3-2.5,4.49-.95,1.43-2.27,2.39-3.07,3.43-1.4,1.83-1.26,4.41-4.16,3.96-3.78-.59-.88-5.08-.4-6.84.42-1.53.78-3.73,1.01-5.34l.59.79.61-.99c-1.16-.3-.69-1.92-1.98-1.78-.79,1.39-1.86,3.21-2.8,4.46-1.2,1.62-3.75,6.07-5.1,7.57-.43.48-1.13.16-1.23.25-.05.04.49.76.23,1.18-.35.57-2.87,1.94-3.64,2-.91.06-1.68-1.91-1.56-2.8.51-3.69,4.33-8.27,4.57-12.26l-4.75,6.55c-1.33,1.54-6.99,7.34-8.63,8.08-1.54.69-3.04.87-4.27-.36-1.76-1.76-1.45-4.09-1.24-6.42.17-1.89.89-3.96,1.07-5.67.09-.81.16-1.17-.81-.99l.17,1.21c-1.86.9-3.04,4.39-4.51,5.74-.97.89-.68.21-1.48,1.35-.67.96-3.4,3.89-4.4,4.75-4.44,3.81-8.98,2.89-8.01-3.54-2.59-.24-1.97.73-2.99,1.98-.34.41-.83-.02-.91.07-.16.19-.11.92-.44,1.32-2.13,2.6-5.91,2.29-6.59-1.38-.25-1.37.33-2.3.04-3.58-2.65,2.88-5.46,7.48-9.67,8.09-2.3.33-3.71-2.25-4.15-4.19-.83-3.67,1.9-9.62,3.36-13.1,1.16-2.77,3.04-6.24,4.29-8.54,1.28-2.36,2.19-5.44,4.4-7.02-.08-1.6-8.79,3.78-9.84.73-.22-.63-.17-1.91.13-2.52.78-1.57,10.11-1.93,11.97-3.28.36-.26,2.02-4.26,2.54-5.19,1.42-2.5,3.63-5.69,4.98-8.37.51-1.02,1.63-5.34,3.08-5.18.41.18.95.45,1.25.78M312.39,50.33c-1.92-.65-1.31.06-1.9.35-2.76,1.35-3.49,3.43-6.03,4.4l.36,1.12c-1.71.59-1.9,3.45-3.47,4.1.77,1.73-.58.51-.45,1.91,3.82-.85,6.48-4.48,9.39-6.83l2.1-5.05ZM230.77,51.13l-1.77-.8c-4.58,4.72-9.43,9.86-10.52,16.64,1.92.18,2.28-.83,3.34-1.82,1.17-1.09,4.5-4.17,5.16-5.32,1.43-2.47,2.59-6.05,3.78-8.7"/>
    <path class="cls-2" d="M53.26,34.49l.79.59c-.62.64-.87,1.47-1.24,2.26-.19.4-1.41,2.34-1.45,2.5-.03.12-.31,2.28-.33,2.55-.04.48.17.74.63.82,3.12-4.83,6.74-9.49,10.55-13.83,2.34-2.66,5.81-6.76,8.68-8.76,1.13-.79,2.01-1.09,3.39-.62.59.2,2.12,1.93,2.19,2.39.06.38-.84,3.96-1.04,4.69-.1.35-.73.27-.72.46.2,3.41-1.68,7.35-2.96,10.4-2.4,5.74-4.31,13.88-6.4,19.93-.42,1.21-1.16,3.75-1.67,4.68-.22.4-.46.54-.91.49l.79.59-.46,1.71-.72.08.78.57c-.93,1.38-.73,3.18-1.01,4.62-.09.43-.66.83-.72,1.13-.18.83.23,1.92-.24,2.79.77-.56,1.01-.76,1.98-.4l-.4-1.18c1.33.45,1.77-1.86,2.49-2.66,5.51-6.11,10.51-12.56,15.33-19.34.8-1.13,4.04-6.76,4.76-7.12,1.7-.84,3.36.82,2.85,2.4-.21.65-.76.64-.86.85-3.11,6.73-7.66,12.69-9.09,20.16-.06.33-.35,2.53-.22,2.55l2.15-1.42c8.01-5.83,13.86-18.61,21.24-23.93.57-.41.24-1.1,1.43-1.33,2.35-.47,4.7,1.04,4.9,3.49.22,2.69-2.16,6.76-5.3,5.7l-.46-1.53c-1.91,1.21-3.62,2.87-4.93,4.78-2.78,4.04-4.01,8.81-3.67,13.6.04.5.6,1.21.74,1.77,2.79.56,4.06-1.74,6.08-3.14.33-.23.89,0,.93-.05,6.49-8.33,13.44-15.68,18.23-25.54,3.66-7.53,6.43-15.61,10.21-23.07.61-1.2,1.39-3.09,2.92-2.83l.39,1.19.2-1.18c1.72,1.01,1.6,3.81.41,5.17-.26.3-.91.31-1,.38-.46.37,1.41.28.79,1.18-1.9-.37-1.34,1.74-1.89,3.06-.6,1.45-1.97,2.93-2.55,4.19-2.37,5.12-4.34,10.68-6.46,15.73-1.08,2.58-2.74,5.1-2.97,7.93.29.34,3.67-3.46,4.12-3.82.96-.77,3.42-2.34,4.5-2.8,3.2-1.37,10.06-2.85,9.04,2.67-.53,2.89-1.27,2.51-2.61,4.16-3.27,4.04-5.41,5.98-9.51,8.73-.52.35-1.53-.95-1.53,1.18,0,1.33,4.73,4.93,6.03,4.92.7,0,2.79-.56,3.61-.79,1.46-.42,5.09-2.43,6.14-2.59.59-.1,1.45.32,1.6.23.06-.03-.27-.57-.16-.8.56-1.17,2.9-1.31,3.25-1.69.19-.21-.09-.83.35-1.09.6-.35,3.45-1.6,3.68-.55.36,1.44-2,3.54-3.07,4.49-3.49,3.09-7.37,4.77-11.38,6.37l-.58-.79c.03,1.4-2.31,1.57-3.36,1.49-2.5-.19-4.56-1.86-6.52-2.32l-.03-1.15-1.12.36-5.02-6.7c-1.44.82-.43,2.4-1.75,3.08l-2.71,7.89c-2.83,3.47-4.36-.66-3.96-3.54.4-2.85,2.43-5.09,3.07-7.83l1.18.4-.81-1.36,1.6-4.18c-1.1-.27-.68.41-.97.79-.84,1.1-1.33,2.69-2.51,3.24l.3.69c-2.15,1.22-4.35,3.81-6.35,5.75-.92.9-1.08,2.38-2.75,2.21l.79.4c-4.68,4.58-10.1,7.62-13.47-.21l.8-.37c-1.99-1.41.81-6.35-.6-6.95-.4.56-.48,1.19-.99,1.78-1.44,1.71-9.11,9.38-10.7,9.9-.32.11-2.58.23-2.72.15-.15-.61-.66-1.26-.76-1.82-.21-1.21.15-4.89.45-6.17.28-1.2,1.95-2.56.84-3.84l-.24,1.15-1.15.04c.63.98-.17,1.84-.79,2.59-2.95,3.57-6.18,8.31-9.76,12.21-.74.81,0,1.49-2.1,2.06-2.07.56-3.39-.25-3.59-2.39-.15-1.5.34-8.13.82-9.42.17-.45,1.16.03.34-1.64,3.2-10.51,7.78-23.15,10.91-33.13.86-2.74,2.33-5.85,2.89-8.6.08-.41.46-1.75-.29-1.69l-.85,1.09-1.13-.3c.29,1.66-1.12,1.35-1.77,2.01-2.88,2.94-5.37,6.43-7.99,9.59-.12.15.43,1.32-1.34,1.09l.36,1.12c-.25.08-.59.11-.75.35-2.77,4.16-6.31,8.19-9.36,12.14-.88,1.14-1.24,3.52-3.31,3.83l.78.78c-1.11.08-1.61,2.29-2.12,3.04-2.76,4.12-8.38,12.42-9.89,17.18-.49,1.55.24,3.4-1.11,4.91-1.22,1.36-2.64,1.62-4.32,1.03l.39-1.58-.79.4c-.6-2.17.59-4.5,1.59-6.44,8.9-17.19,18.51-33.14,24.74-51.82,1.08-3.23,4.52-10.99.03-12.29-.29.95-1.04.78-1.59,1.2-1.34,1.03-4.47,4.14-5.65,4.78-.52.28-1.2-.01-1.25.03-.21.21-.17.97-.41,1.29-.25.33-.84.18-1.2.53-4.53,4.5-16.92,17.04-17.81,22.93-.15.97,0,1.96-.05,2.93-.96-.66-1.31.76-2.16.79-.13,0-2.41-.77-2.52-.85-.13-.1-.54-2.82-.45-3.29.61-3.52,6.71-9.59,9.11-12.4,2.7-3.16,5.25-6.45,8.3-9.43,2.72-2.66,9.72-9.33,12.71-11.06,1.58-.91,4.59-1.58,6.32-.81,1.49.66,1.75,1.51,2.19,2.97,1.7,5.61-1.98,12.23-3.96,17.45-.4,1.04-1.7,6.2-2.18,6.54-.28.2-.83.17-1.19.19M131.71,50.33c-.73-.1-1.17.01-1.8.37-1.53.87-6.06,4.15-7.14,5.54-.72.93-1.04,2.03-.97,3.2.85.06,1.6-.25,2.33-.64.85-.44,4.84-3.74,5.44-4.5.65-.82,1.25-3.03,2.14-3.98"/>
    <path class="cls-2" d="M212.4,4.51c1.63,1.78,3.12,5.34,2.55,7.62l.74.34c-.78,3.51-1.44,7.19-3.31,10.39-2.38,4.08-7.56,10.39-10.57,14.49-1.4,1.91-3.45,3.66-5.92,2.68l.16-.83c2.43-3.38,5.24-6.62,7.62-10,1.2-1.7,1.88-2.88,3.07-4.65,3.38-5.02,8.05-11.18,3.52-16.91-.28-.36-2.11-2.27-2.39-2.48-3.18-2.34-6.15-.63-9.75-1.2-.42,1.82-1.12-.51-1.82.03-.08.06-.08.69-.39.95-.29.24-2.2.18-2.6.33-.22.08-.22.54-.49.66-1.98.87-4.26,1.49-5.85,3.2l-.59-.79-.24,1.17c-1.21-.7-.97.28-1.49.68-1.15.88-2.48,2.18-3.97,3.17-.67.44-1.35-.41-.74.84-2.07,1.38-4.12,6.55-3.67,8.99.15.82,1.31.81-.18,1.16.72.9.34,2.1.59,2.99,2.92,10.32,15.4,22.36,16.05,31.93.05.79-.45,1.51-.43,1.93.01.24.69.18.78.48,1.36,4.27-5.19,11.39-8.75,13.36-3.73,2.07-11.45,4.08-15.68,2.94-.21-.06-3.6-1.75-3.79-1.88-.66-.48-1.91-2.56-2.33-3.38-.33-.64.01-.98-.08-1.31-.02-.07-.64-.08-.68-.33-.09-.55.73-3.04,1.05-3.68.53-1.04,1.46-1.43,1.73-1.93.29-.54.17-1.52.61-2.06.16-.19,3.41-2.88,3.71-3.07,1.88-1.21,4.23-3.36,6.64-4.8,1.23-.73,3.45-2.21,3.21.08-.17,1.55-5.55,4.59-6.89,5.94-1.03,1.05-1.96,2.95-2.62,3.71-.65.74-1.79,1.17-2.52,2.63-1.05,2.08-1.2,3.84,1.14,5.1,6.84,3.69,20.22-2.59,21.26-10.62.31-2.41-.65-4.03-.36-6.11l-.79.4c-.03-3.76-2.98-6.68-4.77-9.73-5.17-8.79-10.18-16.37-10.64-26.96,0-.18.65-.1.74-.45.13-.5.42-2.35.76-2.71.3-.32.78-.55,1.23-.59l-.79-.59c1.61-3.37,4.22-4.77,6.93-6.94.57-.46.75-1.12,1.13-1.44,2-1.7,6.33-3.61,8.66-4.61,1.29-.56,5.33-2.3,6.56-2.59.28-.07,5.36-.1,5.79-.05,2.85.37,6.88,2.36,8.83,4.48"/>
    <path class="cls-3" d="M98.04,13.48l-.86-1.08-1.12.3c-3.58-9.59,7.03-4.34,1.98.78"/>
    <path class="cls-1" d="M17.97,35.32v20.85h-2.21L2.66,39.89v16.27H0v-20.85h2.21l13.1,16.27v-16.27h2.66ZM40.48,35.32h2.66v20.85h-2.66v-20.85ZM63.54,45.72c0-6.09,4.8-10.66,11.14-10.66,3.32,0,6.05,1.03,7.93,3.1l-1.7,1.73c-1.7-1.73-3.76-2.51-6.16-2.51-4.91,0-8.56,3.54-8.56,8.34s3.65,8.34,8.56,8.34c2.4,0,4.46-.74,6.16-2.51l1.7,1.73c-1.92,2.1-4.61,3.1-7.93,3.1-6.35,0-11.14-4.54-11.14-10.66ZM109.34,46.64l-4.06,4.06v5.46h-2.66v-20.85h2.66v12.1l11.95-12.1h2.99l-9.08,9.45,9.7,11.4h-3.17l-8.34-9.52ZM162,53.76l1.11-2.07c1.55,1.4,4.21,2.44,7.01,2.44,3.84,0,5.35-1.55,5.35-3.43,0-5.5-12.84-1.92-12.84-9.74,0-3.39,2.8-5.9,7.97-5.9,2.44,0,4.98.63,6.72,1.84l-.96,2.14c-1.77-1.25-3.87-1.7-5.83-1.7-3.69,0-5.28,1.55-5.28,3.51,0,5.46,12.88,1.99,12.88,9.63,0,3.47-2.88,5.9-8.08,5.9-3.21,0-6.38-1.07-8.04-2.62ZM201.59,37.53h-7.34v-2.21h17.34v2.21h-7.34v18.63h-2.66v-18.63ZM242.07,50.77h-11.7l-2.44,5.39h-2.66l9.63-20.85h2.62l9.63,20.85h-2.66l-2.44-5.39ZM241.11,48.63l-4.87-10.81-4.91,10.81h9.78ZM268.24,37.53h-7.34v-2.21h17.34v2.21h-7.34v18.63h-2.66v-18.63ZM316.72,56.16v-16.05l-7.97,13.43h-1.22l-7.97-13.21v15.83h-2.55v-20.85h2.29l8.85,14.94,8.82-14.94h2.29l.04,20.85h-2.58ZM354.8,50.77h-11.7l-2.44,5.39h-2.66l9.63-20.85h2.62l9.63,20.85h-2.66l-2.44-5.39ZM353.85,48.63l-4.87-10.81-4.91,10.81h9.78ZM396.61,35.32v20.85h-2.21l-13.1-16.27v16.27h-2.66v-20.85h2.21l13.1,16.27v-16.27h2.66Z"/>
  </g>
</svg>